<svg width="154" height="128" viewBox="0 0 154 128" fill="none" xmlns="http://www.w3.org/2000/svg">
<g clip-path="url(#clip0_30_6297)">
<path d="M14.0555 89.3802C14.0555 89.3802 -21.4852 39.4007 20.4621 13.3508C62.4034 -12.6991 136.839 1.53877 146.144 37.2803C152.243 61.8148 122.198 99.2245 95.0456 109.368C95.0456 109.368 96.5718 121.633 89.4021 127.994C89.4021 127.994 88.639 116.029 83.1493 113.457C74.6073 114.667 37.8479 126.479 14.0555 89.3743V89.3802Z" fill="#FBB715"/>
<path d="M29.7729 70.226C30.9561 69.6387 31.5476 69.6387 32.7307 69.0513C33.3223 73.7503 32.7307 78.4492 33.9138 83.1482C34.5054 84.9103 36.2801 84.323 37.4632 83.7356C36.2801 86.6724 35.097 89.0219 33.9138 91.9588C35.6885 90.784 38.0547 90.784 39.8294 89.6093C41.6041 87.8472 41.6041 84.323 43.9703 81.9735V86.6724C45.745 85.4977 48.1112 84.9103 50.4774 84.9103C49.2943 78.4492 49.8859 71.9882 49.8859 65.5271C50.4774 64.9397 52.2521 67.8765 52.2521 62.5902C44.5619 64.3523 36.8716 64.9397 29.7729 68.4639V70.226ZM39.2379 67.2892C40.421 67.2892 41.6041 67.2892 42.7872 66.7018C43.9703 70.8134 43.3788 75.5124 43.3788 79.624C42.7872 80.7987 40.421 81.3861 40.421 80.7987C38.6463 76.6871 38.6463 71.9882 39.2379 67.2892ZM69.9988 63.7649C69.4073 66.7018 71.1819 70.8134 68.8157 73.1629C66.4495 74.925 62.9001 73.1629 59.9424 74.3376V81.3861C63.4917 81.9735 62.9001 78.4492 62.9001 76.0998H69.4073C69.4073 78.4492 70.5904 81.3861 68.2241 82.5608C64.0832 84.323 59.3508 83.7356 55.2099 84.323C51.6606 80.7987 54.0268 75.5124 53.4352 71.4008C55.8015 70.8134 57.5761 70.8134 59.9424 70.226V71.9882C61.1255 72.5755 62.9001 72.5755 63.4917 71.4008C64.0832 69.0513 63.4917 66.1144 63.4917 63.7649C61.1255 63.1776 59.3508 65.5271 59.9424 67.8765C57.5761 68.4639 55.8015 68.4639 53.4352 68.4639C54.0268 66.7018 52.2521 64.3523 54.0268 63.1776C58.1677 60.8281 64.0832 61.4155 68.8157 61.4155C69.4073 61.4155 69.9988 62.5902 69.9988 63.7649ZM74.1397 61.4155C73.5482 68.4639 72.9566 76.0998 72.9566 83.1482H78.8722C79.4637 76.6871 79.4637 69.6387 81.2384 63.1776C81.2384 62.5902 84.1962 63.1776 84.1962 63.7649C84.7877 70.226 83.0131 76.6871 83.0131 83.1482C84.7877 83.7356 87.154 83.7356 88.9286 83.7356C90.1118 77.2745 90.1118 70.226 91.2949 63.7649C95.4358 64.9397 100.168 64.3523 104.309 65.5271C104.901 67.8765 104.309 70.8134 103.126 73.1629C103.126 73.7503 101.351 73.1629 100.168 73.1629C100.76 71.4008 101.351 69.6387 100.76 69.0513C98.9851 67.8765 96.6189 68.4639 94.2527 67.8765C94.8442 73.1629 91.8864 78.4492 93.6611 84.323C98.3935 84.9103 103.126 85.4977 107.858 84.9103C110.816 84.323 109.042 80.2114 109.633 77.8619C107.267 77.8619 104.901 77.2745 103.126 78.4492C102.534 78.4492 103.126 80.7987 103.126 81.9735C102.534 83.7356 100.168 83.1482 100.168 82.5608C98.3935 80.2114 100.168 77.2745 100.168 74.925C104.901 76.0998 109.042 75.5124 113.774 75.5124C114.366 78.4492 113.182 81.9735 113.182 84.9103H119.69C120.873 78.4492 120.281 71.4008 120.281 64.9397C126.788 63.7649 133.295 63.7649 139.803 62.0028C141.577 61.4155 143.352 60.2407 145.127 60.2407V62.5902C138.619 64.9397 132.112 66.7018 125.014 67.2892C121.464 70.8134 123.239 76.0998 123.239 80.2114C123.239 80.7987 124.422 81.3861 125.014 81.3861C129.746 80.7987 134.479 81.3861 138.619 78.4492C141.577 76.0998 138.619 70.8134 139.211 66.7018C140.986 66.1144 143.352 66.1144 145.127 65.5271C145.718 70.226 145.718 75.5124 146.31 80.2114C148.676 79.624 150.451 79.0366 152.817 78.4492C152.817 71.9882 150.451 64.9397 151.634 58.4786C151.634 57.8912 153.408 57.8912 154 57.3039C154 56.7165 153.408 56.1291 153.408 55.5417C131.521 62.5902 109.042 64.9397 85.9709 61.4155C81.83 60.8281 78.2806 61.4155 74.1397 61.4155ZM113.774 73.1629C112.591 73.1629 110.816 73.7503 110.225 73.1629C109.042 70.8134 111.408 68.4639 110.225 65.5271C111.408 64.9397 113.774 64.3523 113.774 64.9397C115.549 67.2892 113.182 70.226 113.774 73.1629ZM133.295 77.2745C133.295 79.0366 130.929 78.4492 129.746 78.4492C130.338 74.925 127.38 67.8765 133.295 67.8765V77.2745Z" fill="#231F20"/>
<path d="M41.4623 31.8826C43.2724 40.0059 45.0826 48.1234 46.8928 56.2467C44.1479 56.8517 42.7755 57.1807 40.0485 57.8914C39.0191 53.9912 38.5045 52.0412 37.4693 48.141C33.9436 49.0573 32.1926 49.5625 28.7083 50.6491C29.9269 54.4964 30.5362 56.4171 31.7489 60.2644C29.0396 61.1102 27.6908 61.5566 25.017 62.514C22.1953 54.6843 19.3676 46.8547 16.5459 39.025C19.5983 37.9384 21.1305 37.4274 24.2184 36.4641C25.3483 40.0294 25.9102 41.8091 27.0401 45.3745C30.625 44.2526 32.4292 43.7416 36.0614 42.7959C35.109 39.1836 34.6298 37.3745 33.6715 33.7622C36.7771 32.9516 38.3329 32.5815 41.4623 31.8884V31.8826Z" fill="#231F20"/>
<path d="M68.8691 44.135C63.3203 44.6343 60.5518 44.9867 55.0503 45.8854C55.5413 48.0704 56.7303 48.9985 58.6233 48.7165C59.3273 48.6108 59.8892 48.37 60.3092 47.9765C60.7292 47.5888 60.9895 47.113 61.0901 46.555C64.1603 46.1497 65.7042 45.9735 68.7863 45.6975C68.6443 47.1013 68.1592 48.4052 67.3547 49.6035C66.5502 50.8076 65.4913 51.8002 64.1899 52.5932C62.8884 53.3861 61.4273 53.8972 59.8005 54.138C57.8188 54.4258 56.0086 54.3142 54.3404 53.7797C52.6722 53.2511 51.2584 52.323 50.0931 50.9838C48.9277 49.6446 48.1173 47.9706 47.7032 45.9442C47.2832 43.9177 47.3719 42.0675 47.9871 40.3876C48.6082 38.7077 49.6908 37.3098 51.2348 36.2173C52.7846 35.1248 54.6599 34.4023 56.8427 34.0851C59.0492 33.7621 61.0546 33.9148 62.8293 34.5139C64.598 35.113 66.0178 36.1174 67.0767 37.5036C68.1355 38.8898 68.7389 40.558 68.9164 42.5022C68.9578 42.9955 68.946 43.5359 68.875 44.135H68.8691ZM60.043 39.906C59.3627 39.4772 58.5582 39.3245 57.6354 39.4596C56.6416 39.6064 55.8666 39.9882 55.3283 40.5932C54.79 41.2041 54.5534 42.0146 54.6185 43.0308C57.2509 42.5961 58.576 42.4082 61.2202 42.0675C61.1138 41.0631 60.7233 40.3406 60.043 39.9118V39.906Z" fill="#231F20"/>
<path d="M78.7954 26.05C79.0971 34.7373 79.3988 43.4245 79.7064 52.1117C76.8847 52.2116 75.4768 52.2821 72.661 52.4935C72.0162 43.8239 71.3714 35.1543 70.7266 26.4847C73.9505 26.2498 75.5655 26.1616 78.8013 26.05H78.7954Z" fill="#231F20"/>
<path d="M91.3601 25.9912C91.1294 34.6784 90.9046 43.3715 90.6739 52.0587C87.8462 51.9883 86.4324 51.9765 83.6107 52.0118C83.4983 43.3187 83.3859 34.6256 83.2676 25.9325C86.5034 25.8913 88.1243 25.9031 91.3601 25.9853V25.9912Z" fill="#231F20"/>
<path d="M111.928 34.8841C113.573 35.9179 114.768 37.2806 115.519 38.9487C116.265 40.6169 116.46 42.4671 116.134 44.4818C115.803 46.5258 115.046 48.2233 113.887 49.5919C112.727 50.9605 111.301 51.9414 109.598 52.5464C107.894 53.1514 106.06 53.3511 104.061 53.1514C102.061 52.9517 100.298 52.3937 98.7427 51.4597C97.1928 50.5258 95.986 49.2865 95.1342 47.7123C94.2764 46.144 93.8801 44.3291 93.9629 42.2615C94.0516 40.194 94.6077 38.4201 95.6725 36.9399C96.7373 35.4656 98.1807 34.3731 100.009 33.6859C101.837 32.9987 103.877 32.7637 106.108 32.9869C108.338 33.2101 110.29 33.8503 111.934 34.8841H111.928ZM102.777 39.7593C102.026 40.3995 101.6 41.3922 101.488 42.7255C101.375 44.0824 101.629 45.1396 102.239 45.9032C102.848 46.6609 103.653 47.0897 104.658 47.1896C105.646 47.2894 106.504 47.0251 107.255 46.3849C108.006 45.7505 108.468 44.7696 108.628 43.4421C108.787 42.1147 108.568 41.0574 107.959 40.2762C107.35 39.495 106.522 39.0545 105.492 38.9487C104.439 38.843 103.528 39.1132 102.771 39.7593H102.777Z" fill="#231F20"/>
<path d="M39.723 31.7063C41.5332 39.8296 43.3433 47.9471 45.1535 56.0705C42.4087 56.6755 41.0363 57.0044 38.3092 57.7151C37.2799 53.815 36.7652 51.8649 35.73 47.9647C32.2043 48.881 30.4533 49.3862 26.9691 50.4728C28.1877 54.3201 28.797 56.2408 30.0097 60.0881C27.3003 60.9339 25.9516 61.3803 23.2777 62.3377C20.456 54.5081 17.6284 46.6784 14.8066 38.8487C17.8591 37.7621 19.3912 37.2511 22.4791 36.2878C23.609 39.8531 24.171 41.6329 25.3009 45.1982C28.8857 44.0763 30.6899 43.5653 34.3221 42.6197C33.3697 39.0073 32.8905 37.1982 31.9322 33.5859C35.0379 32.7753 36.5937 32.4053 39.723 31.7122V31.7063Z" fill="white"/>
<path d="M67.1298 43.9588C61.581 44.458 58.8125 44.8105 53.311 45.7091C53.802 47.8942 54.9911 48.8222 56.884 48.5403C57.588 48.4345 58.15 48.1937 58.57 47.8002C58.99 47.4125 59.2503 46.9368 59.3508 46.3787C62.421 45.9735 63.965 45.7973 67.047 45.5212C66.905 46.925 66.4199 48.229 65.6154 49.4272C64.8109 50.6313 63.752 51.624 62.4506 52.4169C61.1492 53.2099 59.688 53.7209 58.0612 53.9617C56.0795 54.2495 54.2694 54.1379 52.6012 53.6034C50.933 53.0748 49.5192 52.1467 48.3538 50.8075C47.1884 49.4683 46.378 47.7943 45.9639 45.7679C45.5439 43.7414 45.6326 41.8912 46.2479 40.2113C46.869 38.5315 47.9515 37.1335 49.4955 36.041C51.0454 34.9485 52.9206 34.226 55.1035 33.9089C57.31 33.5858 59.3153 33.7385 61.09 34.3376C62.8588 34.9368 64.2785 35.9412 65.3374 37.3274C66.3963 38.7135 66.9997 40.3817 67.1771 42.3259C67.2185 42.8193 67.2067 43.3597 67.1357 43.9588H67.1298ZM58.3038 39.7297C57.6235 39.3009 56.819 39.1482 55.8961 39.2833C54.9023 39.4301 54.1274 39.8119 53.5891 40.4169C53.0508 41.0278 52.8141 41.8384 52.8792 42.8545C55.5116 42.4199 56.8367 42.2319 59.481 41.8912C59.3745 40.8868 58.9841 40.1644 58.3038 39.7356V39.7297Z" fill="white"/>
<path d="M77.0503 25.8677C77.352 34.5549 77.6537 43.2421 77.9613 51.9294C75.1395 52.0292 73.7316 52.0997 70.9158 52.3111C70.271 43.6415 69.6262 34.9719 68.9814 26.3023C72.2054 26.0674 73.8204 25.9793 77.0562 25.8677H77.0503Z" fill="white"/>
<path d="M89.615 25.8149C89.3843 34.5022 89.1595 43.1953 88.9288 51.8825C86.1011 51.812 84.6873 51.8002 81.8656 51.8355C81.7532 43.1424 81.6408 34.4493 81.5225 25.7562C84.7583 25.7151 86.3791 25.7268 89.615 25.8091V25.8149Z" fill="white"/>
<path d="M110.189 34.7079C111.834 35.7416 113.029 37.1043 113.78 38.7725C114.525 40.4406 114.721 42.2908 114.395 44.3055C114.064 46.3496 113.307 48.0471 112.147 49.4156C110.988 50.7842 109.562 51.7651 107.858 52.3701C106.155 52.9751 104.321 53.1748 102.322 52.9751C100.322 52.7754 98.5592 52.2174 97.0034 51.2835C95.4535 50.3496 94.2468 49.1102 93.3949 47.536C92.5372 45.9678 92.1408 44.1528 92.2236 42.0852C92.3124 40.0177 92.8684 38.2438 93.9332 36.7637C94.998 35.2894 96.4414 34.1968 98.2694 33.5096C100.097 32.8224 102.138 32.5874 104.368 32.8106C106.598 33.0338 108.551 33.6741 110.195 34.7079H110.189ZM101.038 39.583C100.287 40.2233 99.8606 41.2159 99.7482 42.5493C99.6358 43.9061 99.8902 44.9634 100.5 45.7269C101.109 46.4846 101.913 46.9134 102.919 47.0133C103.907 47.1131 104.765 46.8488 105.516 46.2086C106.267 45.5742 106.729 44.5933 106.888 43.2659C107.048 41.9384 106.829 40.8811 106.22 40.0999C105.611 39.3187 104.782 38.8782 103.753 38.7725C102.7 38.6667 101.789 38.9369 101.032 39.583H101.038Z" fill="white"/>
<path d="M141.684 17.0103C141.772 16.4347 141.855 15.8591 141.944 15.2835C141.932 15.2541 141.92 15.2247 141.914 15.1954L142.021 14.6021C142.009 14.5728 141.997 14.5434 141.985 14.514C142.015 14.3378 142.044 14.1675 142.068 13.9913C142.056 13.9619 142.044 13.9384 142.039 13.909C142.05 13.7563 142.068 13.6036 142.08 13.4567C142.092 13.4098 142.104 13.3628 142.115 13.3158C142.11 12.8283 142.104 12.3349 142.098 11.8474C142.086 11.818 142.08 11.7886 142.068 11.7592C142.015 11.3657 141.979 10.9722 141.903 10.5845C141.607 9.05146 140.932 7.724 139.726 6.69023C139.702 6.66673 139.684 6.64324 139.661 6.62562C139.637 6.61387 139.613 6.60212 139.595 6.5845C139.572 6.56101 139.554 6.53751 139.53 6.51989C139.211 6.33781 138.897 6.15572 138.578 5.97363C138.548 5.95601 138.525 5.93839 138.495 5.9149C137.957 5.76218 137.419 5.60946 136.88 5.45675C136.857 5.43325 136.839 5.40976 136.815 5.38626C136.348 5.28054 135.88 5.09258 135.413 5.08083C133.982 5.03971 132.698 5.51549 131.568 6.38479C130.142 7.47731 129.214 8.93399 128.492 10.5434C128.474 10.5669 128.456 10.5904 128.439 10.6197C128.439 10.6432 128.445 10.6609 128.451 10.6844C128.415 10.7548 128.374 10.8312 128.338 10.9017C128.338 10.9017 128.303 10.9604 128.285 10.9839C128.291 11.0015 128.297 11.0192 128.303 11.0309C128.249 11.1249 128.202 11.2247 128.149 11.3187C128.143 11.3657 128.137 11.4127 128.125 11.4597C128.001 11.771 127.877 12.0823 127.758 12.3936C127.752 12.4406 127.747 12.4876 127.735 12.5346C127.693 12.6344 127.658 12.7284 127.616 12.8283C127.593 12.8518 127.569 12.8753 127.545 12.8929C127.528 12.9927 127.516 13.0867 127.498 13.1866C127.498 13.1866 127.48 13.2335 127.492 13.257C127.374 13.6212 127.238 13.9854 127.149 14.3554C126.883 15.5184 126.64 16.6873 126.386 17.8562C126.297 18.2614 126.191 18.6667 126.126 19.072C126.007 19.771 125.913 20.47 125.806 21.1689C125.759 21.1924 125.712 21.2159 125.658 21.2335C125.688 21.2864 125.723 21.3393 125.753 21.3863C125.67 21.909 125.587 22.4318 125.505 22.9487C125.516 22.978 125.528 23.0074 125.54 23.0368C125.392 23.9824 125.244 24.9281 125.102 25.8738C125.114 25.9032 125.126 25.9325 125.144 25.9678C125.114 26.1146 125.09 26.2673 125.061 26.4142C125.073 26.4435 125.085 26.4729 125.09 26.4964C125.085 26.6256 125.073 26.7548 125.067 26.8841C125.043 26.9017 125.037 26.9252 125.043 26.9487C125.025 27.2835 125.008 27.6124 124.99 27.9472C124.966 27.9648 124.96 27.9883 124.966 28.0118C124.96 28.2938 124.954 28.5816 124.943 28.8635C124.943 28.8635 124.913 28.9046 124.919 28.9281C124.919 29.0338 124.931 29.1396 124.931 29.2453C124.919 29.2923 124.907 29.3393 124.895 29.3863C124.895 29.7504 124.901 30.1146 124.907 30.4788C124.907 30.4788 124.883 30.5081 124.872 30.5199C124.872 30.5551 124.883 30.5845 124.889 30.6197C124.889 30.9311 124.901 31.2482 124.907 31.5595C124.913 31.5889 124.919 31.6183 124.925 31.6476C124.907 31.7416 124.889 31.8297 124.878 31.9237C124.883 31.9531 124.889 31.9824 124.895 32.0118C124.895 32.2526 124.895 32.4993 124.901 32.7402C124.913 33.4568 124.925 34.1675 124.937 34.8841C124.948 34.9369 124.954 34.9957 124.966 35.0485C125.002 35.4949 125.031 35.9413 125.073 36.3877C125.161 37.3863 125.256 38.3848 125.351 39.3833C125.363 39.4127 125.374 39.4362 125.38 39.4656C125.268 39.8943 125.475 40.2233 125.723 40.5404C125.771 40.5757 125.812 40.6051 125.859 40.6403C126.22 40.8929 126.569 41.1337 126.847 41.5096C127.114 41.8679 127.581 42.0794 127.96 42.3554C127.983 42.3731 128.013 42.3907 128.036 42.4083C128.527 42.5258 129.018 42.6374 129.515 42.7548L129.681 42.7431C130.704 42.6961 131.728 42.6491 132.745 42.6021C132.988 42.796 133.053 42.6432 133.094 42.4318C133.23 42.1616 133.414 41.9032 133.496 41.6153C133.739 40.7871 133.94 39.9531 134.159 39.119C134.165 39.1131 134.183 39.1073 134.183 39.1014C134.183 39.0838 134.171 39.0662 134.165 39.0485C134.183 38.9487 134.195 38.8488 134.212 38.749C134.236 38.7255 134.254 38.7079 134.277 38.6844C134.336 38.4612 134.39 38.2438 134.449 38.0206C134.467 37.9971 134.49 37.9795 134.508 37.956C134.561 37.8092 134.609 37.6623 134.662 37.5155C134.668 37.5096 134.686 37.5037 134.686 37.4979C134.686 37.4802 134.674 37.4626 134.668 37.445C134.668 37.398 134.68 37.3451 134.68 37.2982C134.703 37.2747 134.721 37.257 134.745 37.2335C134.792 37.0632 134.839 36.8929 134.881 36.7225C134.898 36.699 134.922 36.6814 134.94 36.6579C134.987 36.4876 135.035 36.3172 135.082 36.1469C135.106 36.1234 135.123 36.1058 135.147 36.0823C135.194 35.912 135.242 35.7416 135.289 35.5713C135.313 35.5478 135.336 35.5302 135.36 35.5067C135.455 35.2659 135.549 35.025 135.65 34.7901C135.656 34.7431 135.662 34.6961 135.673 34.6491C135.721 34.5023 135.774 34.3613 135.821 34.2145C135.839 34.1968 135.863 34.1733 135.88 34.1557C135.981 33.8679 136.082 33.5801 136.182 33.2923C136.206 33.2688 136.224 33.2512 136.247 33.2277C136.283 33.1572 136.312 33.0808 136.348 33.0103C136.354 32.9634 136.366 32.9164 136.371 32.8635C136.419 32.7167 136.472 32.5757 136.519 32.4288C136.537 32.4112 136.561 32.3877 136.578 32.3701C136.614 32.2468 136.649 32.1234 136.685 32.0059C136.709 31.9883 136.726 31.9648 136.75 31.9472C136.786 31.8239 136.821 31.7064 136.857 31.583C136.874 31.5595 136.898 31.5419 136.916 31.5184C136.951 31.3951 136.987 31.2717 137.022 31.1543C137.04 31.1366 137.064 31.1131 137.081 31.0955C137.117 31.0015 137.152 30.9017 137.194 30.8077C137.217 30.7783 137.241 30.7548 137.265 30.7255C137.265 30.7079 137.265 30.6902 137.253 30.6726C137.288 30.6021 137.324 30.5258 137.353 30.4553C137.365 30.4083 137.371 30.3613 137.383 30.3084C137.383 30.2849 137.383 30.2556 137.383 30.2321C137.407 30.2086 137.43 30.191 137.454 30.1675C137.478 30.1205 137.501 30.0735 137.531 30.0265C137.543 29.9795 137.549 29.9325 137.56 29.8797C137.673 29.6212 137.779 29.3569 137.892 29.0985C137.904 29.0515 137.909 29.0045 137.921 28.9516C137.98 28.7578 138.046 28.5698 138.105 28.376C138.128 28.3525 138.152 28.3349 138.176 28.3114C138.217 28.1645 138.253 28.0177 138.294 27.8767C138.318 27.8532 138.341 27.8356 138.359 27.8121C138.406 27.6418 138.448 27.4714 138.495 27.3011C138.519 27.2776 138.542 27.26 138.566 27.2365C138.613 27.0661 138.655 26.8958 138.702 26.7255L138.767 26.6609C138.815 26.4905 138.856 26.3202 138.903 26.1498C138.927 26.1264 138.945 26.1087 138.968 26.0852C139.093 25.6741 139.217 25.2629 139.341 24.8518C139.365 24.8283 139.382 24.8106 139.406 24.7871C139.465 24.5698 139.519 24.3466 139.578 24.1293C139.601 24.1058 139.625 24.0882 139.643 24.0647L139.755 23.771C139.761 23.724 139.773 23.677 139.779 23.6241C139.791 23.5478 139.797 23.4773 139.808 23.4009C139.832 23.3775 139.856 23.3598 139.879 23.3363C139.927 23.1425 139.98 22.9487 140.027 22.749C140.051 22.7255 140.069 22.7078 140.092 22.6844C140.394 21.6976 140.713 20.7167 140.992 19.724C141.234 18.8664 141.429 18.003 141.648 17.1396L141.772 17.0867C141.743 17.0573 141.713 17.0221 141.678 16.9927L141.684 17.0103ZM129.657 11.9002C129.657 11.9002 129.628 11.9413 129.616 11.959C129.616 11.959 129.645 11.9178 129.657 11.9002Z" fill="white"/>
<path d="M132.372 38.7667C132.296 39.1074 132.213 39.4481 132.136 39.7946C131.84 39.8592 131.544 39.9297 131.248 39.9943C131.142 40.0061 131.03 40.0178 130.923 40.0296C130.87 40.0296 130.817 40.0296 130.769 40.0354C130.373 39.9767 129.971 39.9356 129.586 39.8533C129.231 39.777 128.894 39.6478 128.545 39.5479C128.492 39.4657 128.439 39.3776 128.385 39.2953C128.291 38.9664 128.22 38.6257 128.101 38.3027C128.03 38.1147 127.888 37.9503 127.788 37.774C127.741 37.6859 127.681 37.592 127.675 37.498C127.61 36.6698 127.563 35.8416 127.504 35.0134C127.474 34.9312 127.451 34.8431 127.421 34.7608C127.421 34.5553 127.409 34.3438 127.403 34.1382C127.415 34.0912 127.427 34.0442 127.439 33.9972C127.439 33.7858 127.439 33.5802 127.439 33.3688C127.451 33.3511 127.462 33.3394 127.474 33.3218C127.474 33.2924 127.462 33.2572 127.457 33.2278L127.433 32.9047L127.468 32.7638C127.468 32.658 127.457 32.5523 127.457 32.4466C127.468 32.4466 127.48 32.4407 127.486 32.4348C127.486 32.4172 127.486 32.3996 127.486 32.382C127.504 31.9708 127.522 31.5597 127.539 31.1485C127.551 31.1309 127.563 31.1191 127.575 31.1074C127.575 31.078 127.569 31.0428 127.563 31.0134L127.581 30.708C127.581 30.6316 127.587 30.5494 127.593 30.473C127.593 30.3673 127.604 30.2674 127.604 30.1617C127.593 30.1323 127.587 30.1088 127.575 30.0795C127.64 29.451 127.711 28.8166 127.776 28.1881C127.788 28.1412 127.8 28.0942 127.811 28.0472C127.817 27.9414 127.823 27.8416 127.829 27.7359C127.817 27.7065 127.806 27.6771 127.794 27.6478C127.817 27.5773 127.835 27.5068 127.859 27.4304C127.871 27.4304 127.882 27.4246 127.888 27.4187C127.888 27.4011 127.888 27.3834 127.888 27.3658C127.9 27.2131 127.918 27.0604 127.93 26.9077C127.918 26.8783 127.912 26.8548 127.9 26.8254C127.995 26.2263 128.09 25.6272 128.184 25.0281C128.172 24.9987 128.161 24.9693 128.155 24.9459C128.243 24.4995 128.332 24.0589 128.421 23.6125C128.409 23.5832 128.397 23.5538 128.391 23.5244C128.439 23.3306 128.492 23.1367 128.539 22.937C128.551 22.937 128.563 22.9312 128.563 22.9253C128.563 22.9077 128.563 22.8901 128.563 22.8724C128.681 22.1617 128.788 21.4451 128.924 20.7344C129.279 18.9253 129.645 17.1221 130.024 15.3188C130.142 14.7491 130.32 14.1852 130.468 13.6213C130.491 13.5978 130.515 13.5802 130.539 13.5567C130.586 13.3629 130.639 13.1691 130.686 12.9752C130.71 12.9517 130.734 12.9341 130.757 12.9106C130.787 12.8401 130.823 12.7638 130.852 12.6933C130.864 12.6463 130.87 12.5993 130.882 12.5523C130.941 12.4348 130.994 12.3115 131.053 12.194C131.071 12.1646 131.089 12.1412 131.106 12.1118C131.101 12.0942 131.095 12.0765 131.089 12.0589C131.272 11.6595 131.461 11.2542 131.645 10.8548C131.668 10.8313 131.686 10.8019 131.71 10.7785C131.734 10.708 131.763 10.6434 131.787 10.5729C131.805 10.5494 131.828 10.5259 131.846 10.5024C132.526 9.15143 133.443 8.01193 134.798 7.28359C135.188 7.07214 135.644 6.9899 136.07 6.84893C136.123 6.84306 136.182 6.83131 136.235 6.82544C137.909 6.85481 139.217 7.51266 139.986 9.0457C140.423 9.92089 140.518 10.8607 140.512 11.8181C140.512 11.9767 140.512 12.1412 140.512 12.2997C140.489 12.3174 140.483 12.3409 140.489 12.3702C140.494 12.476 140.5 12.5817 140.506 12.6874C140.494 12.7344 140.483 12.7814 140.471 12.8284C140.453 13.0046 140.429 13.1808 140.412 13.357C140.423 13.3864 140.435 13.4157 140.447 13.4451C140.406 13.8504 140.358 14.2557 140.317 14.661C140.293 14.6786 140.287 14.7021 140.293 14.7256C140.258 14.8724 140.216 15.0134 140.181 15.1602C140.193 15.1896 140.205 15.219 140.216 15.2483C140.128 15.7182 140.045 16.1881 139.956 16.658C139.903 16.9106 139.844 17.1573 139.791 17.4099C139.672 17.8739 139.56 18.3379 139.442 18.8019C139.418 18.8254 139.394 18.8431 139.371 18.8666C139.27 19.3071 139.163 19.7476 139.063 20.1881C139.039 20.2116 139.016 20.2293 138.992 20.2528C138.974 20.3232 138.951 20.3937 138.933 20.4642C138.714 20.5229 138.696 20.6169 138.868 20.7579C138.732 21.2454 138.601 21.7329 138.465 22.2204C138.442 22.2439 138.418 22.2616 138.394 22.2851C138.371 22.4084 138.353 22.5318 138.329 22.6551C138.312 22.6786 138.312 22.7021 138.323 22.7256C138.258 22.9194 138.199 23.1133 138.134 23.313C138.116 23.3306 138.099 23.3541 138.075 23.3717C137.974 23.683 137.88 24.0002 137.779 24.3115C137.732 24.335 137.685 24.3585 137.631 24.382L137.732 24.5347C137.679 24.705 137.625 24.8754 137.572 25.0457C137.566 25.0927 137.554 25.1397 137.549 25.1867C137.371 25.6683 137.2 26.15 137.022 26.6257C136.998 26.6492 136.981 26.6668 136.957 26.6903C136.803 27.1191 136.649 27.5479 136.501 27.9826C136.43 27.9943 136.365 28.0061 136.294 28.0237C136.324 28.0824 136.354 28.1353 136.383 28.194C136.33 28.3115 136.277 28.429 136.229 28.5464C136.188 28.5641 136.147 28.5817 136.105 28.5993C136.135 28.6287 136.17 28.6639 136.2 28.6933C136.176 28.7696 136.152 28.8401 136.135 28.9165C136.111 28.94 136.093 28.9576 136.07 28.9811C136.016 29.1279 135.969 29.2689 135.916 29.4158L135.886 29.5626C135.851 29.6331 135.815 29.7094 135.78 29.7799C135.762 29.8034 135.744 29.8269 135.732 29.8563C135.732 29.8739 135.744 29.8974 135.744 29.915C135.697 29.9855 135.644 30.0501 135.596 30.1206C135.543 30.15 135.484 30.1793 135.431 30.2146C135.466 30.2557 135.502 30.2968 135.543 30.3379L135.431 30.6257C135.419 30.6727 135.413 30.7197 135.401 30.7726C135.259 31.1074 135.117 31.4363 134.975 31.7711C134.952 31.7946 134.934 31.8122 134.91 31.8357C134.875 31.9591 134.839 32.0765 134.798 32.1999C134.78 32.2175 134.756 32.241 134.739 32.2586C134.573 32.6874 134.407 33.1162 134.248 33.545C134.236 33.592 134.23 33.639 134.218 33.6918C134.183 33.7623 134.153 33.8387 134.117 33.9091C134.094 33.9326 134.076 33.9503 134.052 33.9738C133.999 34.1441 133.94 34.3086 133.887 34.4789C133.869 34.5024 133.869 34.5259 133.881 34.5494C133.863 34.5964 133.839 34.6434 133.822 34.6903C133.798 34.7138 133.768 34.7315 133.745 34.755C133.668 34.9958 133.591 35.2366 133.514 35.4833C133.496 35.5068 133.496 35.5303 133.514 35.5538C133.449 35.7241 133.384 35.8886 133.313 36.0589C133.295 36.0824 133.295 36.1059 133.307 36.1294C133.26 36.2528 133.218 36.3702 133.171 36.4936C133.147 36.5171 133.13 36.5347 133.106 36.5582C133.053 36.752 133.005 36.9517 132.952 37.1456C132.928 37.1691 132.911 37.1867 132.887 37.2102C132.745 37.7212 132.597 38.2322 132.455 38.7373C132.432 38.7608 132.408 38.7785 132.384 38.8019L132.372 38.7667Z" fill="#FBB715"/>
<path d="M129.344 54.0149C127.208 53.7917 125.558 51.8005 125.439 49.8093C125.416 49.4216 125.41 49.0222 125.457 48.6404C125.581 47.7124 126.173 47.1485 127.013 46.8078C127.167 46.8431 127.332 46.9018 127.368 46.6551C127.468 46.6199 127.569 46.5846 127.675 46.5494C128.001 46.6081 128.332 46.6668 128.533 46.3027C128.817 46.2263 129.119 46.1793 129.19 45.8269L130.148 46.0325C130.148 46.0325 130.19 46.0736 130.213 46.0971C130.539 46.2792 130.858 46.4613 131.183 46.6434C131.201 46.6668 131.225 46.6845 131.242 46.708C132.372 47.683 132.881 48.9517 133.011 50.3908C133.076 51.0956 133.064 51.8063 132.71 52.4466C132.52 52.7814 132.224 53.0574 131.976 53.3629C131.698 53.31 131.515 53.4157 131.432 53.6918C130.793 53.9914 130.124 54.0677 129.432 53.9796C129.403 53.9914 129.373 54.0031 129.344 54.0149Z" fill="#FBB715"/>
<path d="M134.082 50.8607C134.082 50.8607 134.112 50.8548 134.112 50.8489C134.112 50.8313 134.112 50.8137 134.112 50.7961C134.112 50.6668 134.112 50.5376 134.112 50.4025L134.147 50.2615C134.141 50.1382 134.135 50.0207 134.123 49.8974C134.07 49.2043 133.887 48.5582 133.455 48.0002C133.414 47.9473 133.372 47.8886 133.331 47.8357C132.958 47.4245 132.591 47.0075 132.207 46.614C132.094 46.4965 131.929 46.4201 131.787 46.332C131.763 46.3085 131.739 46.2909 131.716 46.2674C131.538 46.1499 131.361 46.0266 131.183 45.9091C131.142 45.8563 131.101 45.8093 131.059 45.7564C130.74 45.5508 130.42 45.3452 130.107 45.1397C130.036 45.1044 129.965 45.0692 129.894 45.0281C129.728 44.9635 129.563 44.8988 129.397 44.8342C129.373 44.8107 129.356 44.7931 129.332 44.7696C128.711 44.5171 128.066 44.5934 127.421 44.6463C127.244 44.5523 127.06 44.4289 126.995 44.7579C126.427 44.9752 125.859 45.1984 125.292 45.4157C125.232 45.451 125.167 45.4803 125.108 45.5156C125.025 45.5567 124.943 45.5978 124.86 45.6331C124.706 45.727 124.546 45.821 124.392 45.915C124.239 46.0325 124.091 46.1499 123.937 46.2674C123.866 46.332 123.789 46.3966 123.718 46.4671C123.452 46.8254 123.18 47.1837 122.913 47.542C122.902 47.589 122.896 47.636 122.884 47.683C122.848 47.7535 122.813 47.8298 122.783 47.9003L122.718 47.9649C122.647 48.5053 122.541 49.0398 122.511 49.5802C122.458 50.5082 122.777 51.3599 123.132 52.1999C123.186 52.2997 123.239 52.3937 123.292 52.4936C123.718 53.1808 124.321 53.7564 124.552 54.5611C124.57 54.6257 124.629 54.6903 124.682 54.7373C125.138 55.125 125.599 55.5068 126.061 55.8886C126.084 55.9121 126.102 55.9356 126.126 55.9591C126.711 56.1705 127.267 56.4701 127.912 56.4994C128.433 56.5229 128.953 56.6228 129.462 56.5875C130.899 56.4936 132.118 55.9356 132.988 54.7608C133.201 54.473 133.354 54.1441 133.538 53.8386C133.544 53.7917 133.556 53.7447 133.561 53.6977C133.638 53.4392 133.733 53.1808 133.78 52.9165C133.899 52.2351 133.993 51.5538 134.094 50.8724L134.082 50.8607ZM131.402 52.3056C131.213 52.6404 130.917 52.9165 130.669 53.2219C130.485 53.3335 130.308 53.4392 130.125 53.5508C129.486 53.8504 128.817 53.9268 128.125 53.8386C128.095 53.8504 128.066 53.8621 128.036 53.8739C125.901 53.6507 124.25 51.6595 124.132 49.6683C124.108 49.2806 124.102 48.8812 124.15 48.4994C124.274 47.5714 124.866 47.0075 125.706 46.6668C125.824 46.614 125.942 46.567 126.061 46.5141C126.161 46.4789 126.262 46.4436 126.368 46.4084C126.694 46.4671 127.025 46.5259 127.226 46.1617C127.51 46.0853 127.812 46.0383 127.883 45.6859L128.841 45.8915C128.841 45.8915 128.882 45.9326 128.906 45.9561C129.231 46.1382 129.551 46.3203 129.876 46.5024C129.894 46.5259 129.917 46.5435 129.935 46.567C131.065 47.542 131.574 48.8107 131.704 50.2498C131.769 50.9546 131.757 51.6654 131.402 52.3056Z" fill="#231F20"/>
<path d="M141.684 17.0103C141.772 16.4347 141.855 15.8591 141.944 15.2835C141.932 15.2541 141.92 15.2247 141.914 15.1954L142.021 14.6021C142.009 14.5728 141.997 14.5434 141.985 14.514C142.015 14.3378 142.044 14.1675 142.068 13.9913C142.056 13.9619 142.044 13.9384 142.039 13.909C142.05 13.7563 142.068 13.6036 142.08 13.4567C142.092 13.4098 142.104 13.3628 142.115 13.3158C142.11 12.8283 142.104 12.3349 142.098 11.8474C142.086 11.818 142.08 11.7886 142.068 11.7592C142.015 11.3657 141.979 10.9722 141.903 10.5845C141.607 9.05146 140.932 7.724 139.726 6.69023C139.702 6.66673 139.684 6.64324 139.661 6.62562C139.637 6.61387 139.613 6.60212 139.595 6.5845C139.572 6.56101 139.554 6.53751 139.53 6.51989C139.211 6.33781 138.897 6.15572 138.578 5.97363C138.548 5.95601 138.525 5.93839 138.495 5.9149C137.957 5.76218 137.419 5.60946 136.88 5.45675C136.857 5.43325 136.839 5.40976 136.815 5.38626C136.348 5.28054 135.88 5.09258 135.413 5.08083C133.982 5.03971 132.698 5.51549 131.568 6.38479C130.142 7.47731 129.214 8.93399 128.492 10.5434C128.474 10.5669 128.456 10.5904 128.439 10.6197C128.439 10.6432 128.445 10.6609 128.451 10.6844C128.415 10.7548 128.374 10.8312 128.338 10.9017C128.338 10.9017 128.303 10.9604 128.285 10.9839C128.291 11.0015 128.297 11.0192 128.303 11.0309C128.249 11.1249 128.202 11.2247 128.149 11.3187C128.143 11.3657 128.137 11.4127 128.125 11.4597C128.001 11.771 127.877 12.0823 127.758 12.3936C127.752 12.4406 127.747 12.4876 127.735 12.5346C127.693 12.6344 127.658 12.7284 127.616 12.8283C127.593 12.8518 127.569 12.8753 127.545 12.8929C127.528 12.9927 127.516 13.0867 127.498 13.1866C127.498 13.1866 127.48 13.2335 127.492 13.257C127.374 13.6212 127.238 13.9854 127.149 14.3554C126.883 15.5184 126.64 16.6873 126.386 17.8562C126.297 18.2614 126.191 18.6667 126.126 19.072C126.007 19.771 125.913 20.47 125.806 21.1689C125.759 21.1924 125.712 21.2159 125.658 21.2335C125.688 21.2864 125.723 21.3393 125.753 21.3863C125.67 21.909 125.587 22.4318 125.505 22.9487C125.516 22.978 125.528 23.0074 125.54 23.0368C125.392 23.9824 125.244 24.9281 125.102 25.8738C125.114 25.9032 125.126 25.9325 125.144 25.9678C125.114 26.1146 125.09 26.2673 125.061 26.4142C125.073 26.4435 125.085 26.4729 125.09 26.4964C125.085 26.6256 125.073 26.7548 125.067 26.8841C125.043 26.9017 125.037 26.9252 125.043 26.9487C125.025 27.2835 125.008 27.6124 124.99 27.9472C124.966 27.9648 124.96 27.9883 124.966 28.0118C124.96 28.2938 124.954 28.5816 124.943 28.8635C124.943 28.8635 124.913 28.9046 124.919 28.9281C124.919 29.0338 124.931 29.1396 124.931 29.2453C124.919 29.2923 124.907 29.3393 124.895 29.3863C124.895 29.7504 124.901 30.1146 124.907 30.4788C124.907 30.4788 124.883 30.5081 124.872 30.5199C124.872 30.5551 124.883 30.5845 124.889 30.6197C124.889 30.9311 124.901 31.2482 124.907 31.5595C124.913 31.5889 124.919 31.6183 124.925 31.6476C124.907 31.7416 124.889 31.8297 124.878 31.9237C124.883 31.9531 124.889 31.9824 124.895 32.0118C124.895 32.2526 124.895 32.4993 124.901 32.7402C124.913 33.4568 124.925 34.1675 124.937 34.8841C124.948 34.9369 124.954 34.9957 124.966 35.0485C125.002 35.4949 125.031 35.9413 125.073 36.3877C125.161 37.3863 125.256 38.3848 125.351 39.3833C125.363 39.4127 125.374 39.4362 125.38 39.4656C125.268 39.8943 125.475 40.2233 125.723 40.5404C125.771 40.5757 125.812 40.6051 125.859 40.6403C126.22 40.8929 126.569 41.1337 126.847 41.5096C127.114 41.8679 127.581 42.0794 127.96 42.3554C127.983 42.3731 128.013 42.3907 128.036 42.4083C128.527 42.5258 129.018 42.6374 129.515 42.7548L129.681 42.7431C130.704 42.6961 131.728 42.6491 132.745 42.6021C132.988 42.796 133.053 42.6432 133.094 42.4318C133.23 42.1616 133.414 41.9032 133.496 41.6153C133.739 40.7871 133.94 39.9531 134.159 39.119C134.165 39.1131 134.183 39.1073 134.183 39.1014C134.183 39.0838 134.171 39.0662 134.165 39.0485C134.183 38.9487 134.195 38.8488 134.212 38.749C134.236 38.7255 134.254 38.7079 134.277 38.6844C134.336 38.4612 134.39 38.2438 134.449 38.0206C134.467 37.9971 134.49 37.9795 134.508 37.956C134.561 37.8092 134.609 37.6623 134.662 37.5155C134.668 37.5096 134.686 37.5037 134.686 37.4979C134.686 37.4802 134.674 37.4626 134.668 37.445C134.668 37.398 134.68 37.3451 134.68 37.2982C134.703 37.2747 134.721 37.257 134.745 37.2335C134.792 37.0632 134.839 36.8929 134.881 36.7225C134.898 36.699 134.922 36.6814 134.94 36.6579C134.987 36.4876 135.035 36.3172 135.082 36.1469C135.106 36.1234 135.123 36.1058 135.147 36.0823C135.194 35.912 135.242 35.7416 135.289 35.5713C135.313 35.5478 135.336 35.5302 135.36 35.5067C135.455 35.2659 135.549 35.025 135.65 34.7901C135.656 34.7431 135.662 34.6961 135.673 34.6491C135.721 34.5023 135.774 34.3613 135.821 34.2145C135.839 34.1968 135.863 34.1733 135.88 34.1557C135.981 33.8679 136.082 33.5801 136.182 33.2923C136.206 33.2688 136.224 33.2512 136.247 33.2277C136.283 33.1572 136.312 33.0808 136.348 33.0103C136.354 32.9634 136.366 32.9164 136.371 32.8635C136.419 32.7167 136.472 32.5757 136.519 32.4288C136.537 32.4112 136.561 32.3877 136.578 32.3701C136.614 32.2468 136.649 32.1234 136.685 32.0059C136.709 31.9883 136.726 31.9648 136.75 31.9472C136.786 31.8239 136.821 31.7064 136.857 31.583C136.874 31.5595 136.898 31.5419 136.916 31.5184C136.951 31.3951 136.987 31.2717 137.022 31.1543C137.04 31.1366 137.064 31.1131 137.081 31.0955C137.117 31.0015 137.152 30.9017 137.194 30.8077C137.217 30.7783 137.241 30.7548 137.265 30.7255C137.265 30.7079 137.265 30.6902 137.253 30.6726C137.288 30.6021 137.324 30.5258 137.353 30.4553C137.365 30.4083 137.371 30.3613 137.383 30.3084C137.383 30.2849 137.383 30.2556 137.383 30.2321C137.407 30.2086 137.43 30.191 137.454 30.1675C137.478 30.1205 137.501 30.0735 137.531 30.0265C137.543 29.9795 137.549 29.9325 137.56 29.8797C137.673 29.6212 137.779 29.3569 137.892 29.0985C137.904 29.0515 137.909 29.0045 137.921 28.9516C137.98 28.7578 138.046 28.5698 138.105 28.376C138.128 28.3525 138.152 28.3349 138.176 28.3114C138.217 28.1645 138.253 28.0177 138.294 27.8767C138.318 27.8532 138.341 27.8356 138.359 27.8121C138.406 27.6418 138.448 27.4714 138.495 27.3011C138.519 27.2776 138.542 27.26 138.566 27.2365C138.613 27.0661 138.655 26.8958 138.702 26.7255L138.767 26.6609C138.815 26.4905 138.856 26.3202 138.903 26.1498C138.927 26.1264 138.945 26.1087 138.968 26.0852C139.093 25.6741 139.217 25.2629 139.341 24.8518C139.365 24.8283 139.382 24.8106 139.406 24.7871C139.465 24.5698 139.519 24.3466 139.578 24.1293C139.601 24.1058 139.625 24.0882 139.643 24.0647L139.755 23.771C139.761 23.724 139.773 23.677 139.779 23.6241C139.791 23.5478 139.797 23.4773 139.808 23.4009C139.832 23.3775 139.856 23.3598 139.879 23.3363C139.927 23.1425 139.98 22.9487 140.027 22.749C140.051 22.7255 140.069 22.7078 140.092 22.6844C140.394 21.6976 140.713 20.7167 140.992 19.724C141.234 18.8664 141.429 18.003 141.648 17.1396L141.772 17.0867C141.743 17.0573 141.713 17.0221 141.678 16.9927L141.684 17.0103ZM129.657 11.9002C129.657 11.9002 129.628 11.9413 129.616 11.959C129.616 11.959 129.645 11.9178 129.657 11.9002ZM137.649 20.0118C137.649 20.0118 137.602 20.0529 137.578 20.0764C137.56 20.1469 137.537 20.2174 137.519 20.2879C137.3 20.3466 137.282 20.4406 137.454 20.5816C137.318 21.0691 137.188 21.5566 137.052 22.0441C137.028 22.0676 137.004 22.0852 136.981 22.1087C136.957 22.2321 136.939 22.3554 136.916 22.4788C136.898 22.5023 136.898 22.5258 136.91 22.5493C136.845 22.7431 136.786 22.9369 136.72 23.1366C136.703 23.1543 136.685 23.1777 136.661 23.1954C136.561 23.5067 136.466 23.8239 136.366 24.1352C136.318 24.1587 136.271 24.1822 136.218 24.2056L136.318 24.3584C136.265 24.5287 136.212 24.699 136.158 24.8694C136.153 24.9164 136.141 24.9634 136.135 25.0103L135.608 26.4494C135.608 26.4494 135.567 26.4905 135.543 26.514C135.389 26.9428 135.236 27.3716 135.088 27.8062C135.052 27.8767 135.011 27.9472 134.975 28.0118C134.922 28.1293 134.869 28.2468 134.822 28.3642L134.697 28.4171C134.727 28.4465 134.762 28.4817 134.792 28.5111C134.768 28.5874 134.745 28.6579 134.727 28.7343C134.703 28.7578 134.686 28.7754 134.662 28.7989C134.609 28.9457 134.561 29.0867 134.508 29.2335C134.496 29.2805 134.49 29.3275 134.478 29.3804C134.443 29.4509 134.407 29.5272 134.372 29.5977C134.354 29.6212 134.336 29.6447 134.325 29.6741C134.325 29.6917 134.336 29.7152 134.336 29.7328C134.354 29.7034 134.372 29.68 134.39 29.6506C134.39 29.6506 134.354 29.7034 134.336 29.7328C134.289 29.8033 134.236 29.8679 134.189 29.9384C134.135 29.9678 134.076 29.9971 134.023 30.0324C134.058 30.0735 134.094 30.1146 134.135 30.1557C134.1 30.2497 134.058 30.3496 134.023 30.4435C134.011 30.4905 134.005 30.5375 133.993 30.5904C133.851 30.9252 133.709 31.2541 133.567 31.5889C133.544 31.6124 133.526 31.63 133.502 31.6535C133.467 31.7769 133.431 31.8943 133.39 32.0177C133.372 32.0353 133.349 32.0588 133.331 32.0764C133.165 32.5052 133 32.934 132.84 33.3628C132.828 33.4098 132.822 33.4567 132.81 33.5096C132.775 33.5801 132.745 33.6565 132.71 33.7269C132.686 33.7504 132.668 33.7681 132.645 33.7915C132.591 33.9619 132.532 34.1264 132.479 34.2967C132.461 34.3202 132.461 34.3437 132.473 34.3672C132.455 34.4142 132.432 34.4612 132.414 34.5081C132.39 34.5316 132.361 34.5493 132.337 34.5728C132.26 34.8136 132.183 35.0544 132.106 35.3011C132.106 35.307 132.112 35.3187 132.118 35.3246C132.118 35.3187 132.112 35.307 132.106 35.3011C132.089 35.3246 132.089 35.3481 132.106 35.3716C132.106 35.3716 132.106 35.3716 132.112 35.3716C132.112 35.3716 132.112 35.3716 132.106 35.3716C132.041 35.5419 131.976 35.7064 131.905 35.8767C131.887 35.9002 131.887 35.9237 131.899 35.9472C131.852 36.0706 131.811 36.188 131.763 36.3114C131.74 36.3349 131.722 36.3525 131.698 36.376C131.645 36.5698 131.598 36.7695 131.544 36.9634C131.521 36.9869 131.503 37.0045 131.479 37.028C131.337 37.539 131.189 38.05 131.047 38.5551C131.024 38.5786 131 38.5962 130.976 38.6197C130.9 38.9604 130.817 39.3011 130.74 39.6476C130.444 39.7123 130.148 39.7827 129.852 39.8474L129.527 39.8826C129.474 39.8826 129.421 39.8826 129.373 39.8885C128.977 39.8297 128.575 39.7886 128.19 39.7064C127.835 39.63 127.498 39.5008 127.149 39.401C127.096 39.3187 127.043 39.2306 126.989 39.1484C126.895 38.8195 126.824 38.4788 126.705 38.1557C126.634 37.9678 126.492 37.8033 126.392 37.6271C126.345 37.539 126.285 37.445 126.279 37.351C126.214 36.5228 126.167 35.6946 126.108 34.8664C126.078 34.7842 126.055 34.6961 126.025 34.6139C126.025 34.4083 126.013 34.1968 126.007 33.9913C126.019 33.9443 126.031 33.8973 126.043 33.8503C126.043 33.6388 126.043 33.4333 126.043 33.2218C126.055 33.2042 126.067 33.1924 126.078 33.1748C126.078 33.1454 126.067 33.1102 126.061 33.0808C126.055 32.9751 126.049 32.8635 126.037 32.7578L126.072 32.6168C126.072 32.5111 126.061 32.4054 126.061 32.2996C126.072 32.2996 126.084 32.2938 126.09 32.2879C126.09 32.2703 126.09 32.2526 126.09 32.235C126.108 31.8239 126.126 31.4127 126.143 31.0015C126.155 30.9839 126.167 30.9722 126.179 30.9604C126.179 30.9311 126.173 30.8958 126.167 30.8664C126.167 30.7666 126.179 30.6609 126.185 30.561C126.185 30.4846 126.191 30.4024 126.197 30.3261C126.197 30.2203 126.209 30.1205 126.209 30.0148C126.197 29.9854 126.191 29.9619 126.179 29.9325C126.244 29.304 126.315 28.6697 126.38 28.0412C126.392 27.9942 126.404 27.9472 126.416 27.9002C126.421 27.7945 126.427 27.6946 126.433 27.5889C126.421 27.5595 126.41 27.5302 126.398 27.5008C126.421 27.4303 126.439 27.3598 126.463 27.2835C126.475 27.2835 126.487 27.2776 126.492 27.2717C126.492 27.2541 126.492 27.2365 126.492 27.2189C126.504 27.0661 126.522 26.9134 126.534 26.7607L126.504 26.6785C126.599 26.0794 126.694 25.4802 126.788 24.8811C126.776 24.8518 126.765 24.8224 126.759 24.7989C126.847 24.3525 126.936 23.912 127.025 23.4656C127.013 23.4362 127.001 23.4068 126.995 23.3775C127.043 23.1836 127.096 22.9898 127.143 22.7901C127.143 22.7901 127.167 22.7842 127.167 22.7783C127.167 22.7607 127.167 22.7431 127.167 22.7255C127.285 22.0147 127.392 21.2982 127.528 20.5874C127.883 18.7783 128.249 16.9751 128.628 15.1719C128.746 14.6021 128.924 14.0382 129.072 13.4744L129.143 13.4098C129.19 13.2159 129.243 13.0221 129.291 12.8283C129.314 12.8048 129.338 12.7871 129.361 12.7636C129.391 12.6932 129.427 12.6168 129.456 12.5463L129.486 12.4054C129.545 12.2879 129.598 12.1645 129.657 12.0471C129.657 12.0471 129.693 11.9942 129.711 11.9648C129.705 11.9472 129.699 11.9296 129.693 11.912C129.876 11.5125 130.065 11.1073 130.249 10.7078C130.272 10.6844 130.29 10.655 130.314 10.6315C130.338 10.561 130.367 10.4964 130.391 10.4259C130.409 10.4024 130.432 10.3789 130.45 10.3554C131.13 9.00447 132.047 7.86497 133.402 7.13663C133.792 6.92518 134.248 6.84294 134.674 6.70198C134.727 6.6961 134.786 6.68435 134.839 6.67848C136.513 6.70785 137.821 7.36571 138.59 8.89874C139.028 9.77393 139.122 10.7137 139.116 11.6711C139.116 11.8297 139.116 11.9942 139.116 12.1528C139.093 12.1704 139.087 12.1939 139.093 12.2233C139.099 12.329 139.104 12.4347 139.11 12.5404C139.099 12.5874 139.087 12.6344 139.075 12.6814C139.057 12.8576 139.033 13.0338 139.016 13.2101C139.028 13.2394 139.039 13.2688 139.051 13.2982C139.01 13.7034 138.962 14.1087 138.921 14.514C138.897 14.5316 138.891 14.5551 138.897 14.5786C138.862 14.7255 138.82 14.8664 138.785 15.0133C138.797 15.0427 138.809 15.072 138.82 15.1014C138.732 15.5713 138.649 16.0412 138.56 16.5111C138.507 16.7636 138.448 17.0103 138.395 17.2629C138.276 17.7269 138.164 18.191 138.046 18.655C138.022 18.6785 137.998 18.6961 137.975 18.7196C137.874 19.1601 137.768 19.6007 137.667 20.0412L137.649 20.0118Z" fill="#231F20"/>
<path d="M134.976 28.0176C135.011 27.9471 135.052 27.8766 135.088 27.812C135.017 27.8238 134.952 27.8355 134.881 27.8531L134.97 28.0235L134.976 28.0176Z" fill="#F8F8F8"/>
<path d="M130.125 53.5508C130.308 53.4392 130.485 53.3335 130.669 53.2219C130.391 53.169 130.207 53.2748 130.125 53.5508Z" fill="#F8F8F8"/>
<path d="M126.055 46.5139C125.936 46.5668 125.818 46.6138 125.7 46.6666C125.854 46.7019 126.019 46.7606 126.055 46.5139Z" fill="#F8F8F8"/>
</g>
<defs>
<clipPath id="clip0_30_6297">
<rect width="154" height="128" fill="white"/>
</clipPath>
</defs>
</svg>
