<svg width="19" height="21" viewBox="0 0 19 21" fill="none" xmlns="http://www.w3.org/2000/svg">
<g id="Delete">
<path id="Stroke 1" d="M16.8249 7.96826C16.8249 7.96826 16.2819 14.7033 15.9669 17.5403C15.8169 18.8953 14.9799 19.6893 13.6089 19.7143C10.9999 19.7613 8.38791 19.7643 5.77991 19.7093C4.46091 19.6823 3.63791 18.8783 3.49091 17.5473C3.17391 14.6853 2.63391 7.96826 2.63391 7.96826" stroke="#FD371F" stroke-width="1.5" stroke-linecap="round" stroke-linejoin="round"/>
<path id="Stroke 3" d="M18.2082 4.73975H1.25018" stroke="#FD371F" stroke-width="1.5" stroke-linecap="round" stroke-linejoin="round"/>
<path id="Stroke 5" d="M14.9406 4.73973C14.1556 4.73973 13.4796 4.18473 13.3256 3.41573L13.0826 2.19973C12.9326 1.63873 12.4246 1.25073 11.8456 1.25073H7.61258C7.03358 1.25073 6.52558 1.63873 6.37558 2.19973L6.13258 3.41573C5.97858 4.18473 5.30258 4.73973 4.51758 4.73973" stroke="#FD371F" stroke-width="1.5" stroke-linecap="round" stroke-linejoin="round"/>
</g>
</svg>
