<svg width="115" height="51" viewBox="0 0 115 51" fill="none" xmlns="http://www.w3.org/2000/svg">
<g id="Group 33665">
<path id="Vector" d="M0 -16.6418H6.93243V22.0756C6.79524 23.1774 6.88416 24.3005 7.19218 25.3564C7.5002 26.4123 8.0189 27.3723 8.70749 28.1608C9.39608 28.9493 10.2357 29.5447 11.1604 29.9002C12.085 30.2557 13.0694 30.3616 14.036 30.2096H16.6606L4.62164 50.4793H21.2537L33.2071 29.1684V42.7683H49.7536V-16.6418H56.7145V-22.7585H0V-16.6418ZM23.0225 -16.6418H33.2071V20.5139C33.2071 23.3445 32.3798 24.0929 30.0404 24.0929H25.9894C23.6786 24.0929 23.1366 23.3445 23.1366 20.8393L23.0225 -16.6418Z" fill="#FEEDC3"/>
<path id="Vector_2" d="M35.9712 23.4124H37.6564V32.8431C37.623 33.1114 37.6446 33.385 37.7195 33.6422C37.7944 33.8994 37.9205 34.1332 38.0878 34.3253C38.2552 34.5173 38.4593 34.6624 38.6841 34.749C38.9089 34.8356 39.1482 34.8613 39.3831 34.8243H40.0211L37.0946 39.7616H41.1376L44.0433 34.5707V37.8834H48.0655V23.4124H49.7576V21.9225H35.9712V23.4124ZM41.5676 23.4124H44.0433V32.4627C44.0433 33.1521 43.8422 33.3344 43.2736 33.3344H42.2888C41.7271 33.3344 41.5953 33.1521 41.5953 32.5419L41.5676 23.4124ZM60.576 23.8799V29.1183C60.576 30.4814 60.0558 31.0996 58.8631 31.0996H54.4109V35.5693C54.4109 36.2112 54.5912 36.3618 55.1529 36.3618H55.673C56.2348 36.3618 56.3665 36.1795 56.3665 35.5693V32.8193H60.4303V35.9259C60.4303 37.289 59.9102 37.9071 58.7174 37.9071H52.1085C51.8733 37.9438 51.6339 37.9179 51.4089 37.8313C51.1839 37.7447 50.9795 37.5998 50.8116 37.408C50.6437 37.2162 50.5169 36.9826 50.4412 36.7255C50.3654 36.4683 50.3427 36.1947 50.3748 35.9259V28.3258H54.404V29.578H55.7909C56.3526 29.578 56.533 29.4036 56.533 28.7855V24.2603C56.533 23.6184 56.3526 23.4678 55.7909 23.4678H55.2292C54.6675 23.4678 54.4872 23.6501 54.4872 24.2603V26.4159H50.465V23.9037C50.4316 23.6353 50.4532 23.3618 50.5281 23.1046C50.603 22.8474 50.7291 22.6135 50.8965 22.4215C51.0639 22.2294 51.268 22.0844 51.4927 21.9978C51.7175 21.9112 51.9568 21.8854 52.1917 21.9225H58.8284C60.0558 21.9225 60.576 22.5327 60.576 23.9037V23.8799ZM62.7535 21.8987V37.9071H66.7826V23.4124H69.2584V37.9071H73.2806V23.4124H81.0614C81.6232 23.4124 81.7549 23.5709 81.7549 24.2603V28.3496C81.7549 28.9915 81.5954 29.1421 81.0614 29.1421H79.5982V25.9721H75.576V35.9259C75.576 37.289 76.0892 37.9071 77.282 37.9071H84.0573C84.2922 37.9442 84.5315 37.9184 84.7563 37.8318C84.9811 37.7452 85.1852 37.6001 85.3526 37.4081C85.5199 37.216 85.646 36.9822 85.7209 36.725C85.7958 36.4678 85.8174 36.1943 85.784 35.9259V32.431H81.7618V35.601C81.7618 36.2429 81.5815 36.3935 81.0198 36.3935H80.3263C79.7646 36.3935 79.6329 36.2112 79.6329 35.601V30.7113H88.1696V37.9071H92.1918V23.4124H108.281V25.4174H95.9297C95.6947 25.3803 95.4554 25.4061 95.2307 25.4927C95.0059 25.5793 94.8018 25.7244 94.6344 25.9164C94.467 26.1085 94.3409 26.3423 94.2661 26.5995C94.1912 26.8567 94.1696 27.1302 94.2029 27.3986V33.8971C94.1696 34.1655 94.1912 34.439 94.2661 34.6962C94.3409 34.9534 94.467 35.1872 94.6344 35.3793C94.8018 35.5713 95.0059 35.7164 95.2307 35.803C95.4554 35.8896 95.6947 35.9154 95.9297 35.8783H102.636C103.828 35.8783 104.342 35.2602 104.342 33.8971V26.9548H108.281V37.9071H112.331V23.4124H114.175V21.9225L62.7535 21.8987ZM88.1696 29.1976H85.8118C85.8248 29.0421 85.8248 28.8855 85.8118 28.73V24.3158C85.8296 24.1502 85.8095 23.9821 85.7536 23.828C85.6977 23.6738 85.6079 23.5388 85.4928 23.4361H88.1696V29.1976ZM100.472 33.5642C100.472 34.2062 100.292 34.3567 99.73 34.3567H98.8562C98.2875 34.3567 98.1627 34.1745 98.1627 33.5642V27.779C98.1627 27.1371 98.3222 26.9865 98.8562 26.9865H100.472V33.5642Z" fill="#231F20"/>
</g>
</svg>
