<svg width="291" height="385" viewBox="0 0 291 385" fill="none" xmlns="http://www.w3.org/2000/svg">
<path d="M0 -2.67168H45.9599V220.949C45.0504 227.312 45.6399 233.799 47.682 239.898C49.724 245.996 53.1629 251.541 57.728 256.095C62.2931 260.649 67.8598 264.088 73.9899 266.141C80.1199 268.195 86.6459 268.806 93.0543 267.928H110.455L30.64 385H140.905L220.153 261.915V340.464H329.851V-2.67168H376V-38H0V-2.67168ZM152.632 -2.67168H220.153V211.929C220.153 228.278 214.668 232.6 199.159 232.6H172.302C156.982 232.6 153.388 228.278 153.388 213.808L152.632 -2.67168Z" fill="#231F20" fill-opacity="0.1"/>
</svg>
